{"accessors" : [{"bufferView" : 0, "byteOffset" : 0, "componentType" : 5123, "count" : 7122, "type" : "SCALAR", "max" : [1390], "min" : [0]}, {"bufferView" : 1, "byteOffset" : 0, "componentType" : 5126, "count" : 1391, "type" : "VEC3", "max" : [2.367161273956299, 0.38183513283729553, 2.2814602851867676], "min" : [-0.34941408038139343, -1.8404620885849, -2.4149317741394043], "name" : "POSITION"}, {"bufferView" : 1, "byteOffset" : 12, "componentType" : 5126, "count" : 1391, "type" : "VEC3", "max" : [0.9998020529747009, 0.9983111619949341, 0.9948461055755615], "min" : [-0.9992995858192444, -0.9946697950363159, -0.991241991519928], "name" : "NORMAL"}, {"bufferView" : 1, "byteOffset" : 24, "componentType" : 5126, "count" : 1391, "type" : "VEC2", "max" : [0.5497786998748779, 2.288180351257324], "min" : [-0.5497786998748779, -0.16639554500579834], "name" : "TEXCOORD_0"}, {"bufferView" : 0, "byteOffset" : 14244, "componentType" : 5123, "count" : 6528, "type" : "SCALAR", "max" : [1195], "min" : [0]}, {"bufferView" : 2, "byteOffset" : 0, "componentType" : 5126, "count" : 1196, "type" : "VEC3", "max" : [3.7323191165924072, 1.6092692613601685, 3.7270419597625732], "min" : [-1.6871097087860107, -3.1213295459747314, -2.7535653114318848], "name" : "POSITION"}, {"bufferView" : 2, "byteOffset" : 12, "componentType" : 5126, "count" : 1196, "type" : "VEC3", "max" : [0.9998691082000732, 0.9990633130073547, 0.9992397427558899], "min" : [-0.9998020529747009, -0.9925763607025146, -0.99273681640625], "name" : "NORMAL"}, {"bufferView" : 2, "byteOffset" : 24, "componentType" : 5126, "count" : 1196, "type" : "VEC2", "max" : [0.5497786998748779, 2.206286907196045], "min" : [-0.5497786998748779, -0.1862034797668457], "name" : "TEXCOORD_0"}, {"bufferView" : 0, "byteOffset" : 27300, "componentType" : 5123, "count" : 2592, "type" : "SCALAR", "max" : [863], "min" : [0]}, {"bufferView" : 3, "byteOffset" : 0, "componentType" : 5126, "count" : 864, "type" : "VEC3", "max" : [3.492609977722168, 1.3990545272827148, 3.6575515270233154], "min" : [-1.4734413623809814, -2.9464449882507324, -2.5510034561157227], "name" : "POSITION"}, {"bufferView" : 3, "byteOffset" : 12, "componentType" : 5126, "count" : 864, "type" : "VEC3", "max" : [0.9999858736991882, 0.9988923072814941, 0.9694591760635376], "min" : [-0.9999858736991882, -0.9988923072814941, -0.9694591760635376], "name" : "NORMAL"}, {"bufferView" : 3, "byteOffset" : 24, "componentType" : 5126, "count" : 864, "type" : "VEC2", "max" : [1.2027075290679932, 1.3141592741012573], "min" : [0.3354102075099945, 0.6858407258987427], "name" : "TEXCOORD_0"}, {"bufferView" : 0, "byteOffset" : 32484, "componentType" : 5123, "count" : 10902, "type" : "SCALAR", "max" : [1936], "min" : [0]}, {"bufferView" : 4, "byteOffset" : 0, "componentType" : 5126, "count" : 1937, "type" : "VEC3", "max" : [3.645465135574341, 1.558957576751709, 3.8642401695251465], "min" : [-1.6359212398529053, -3.1186728477478027, -2.815138101577759], "name" : "POSITION"}, {"bufferView" : 4, "byteOffset" : 12, "componentType" : 5126, "count" : 1937, "type" : "VEC3", "max" : [0.9989997744560242, 0.9981995820999146, 0.9905545711517334], "min" : [-0.9988019466400146, -0.9981995820999146, -0.9918884634971619], "name" : "NORMAL"}, {"bufferView" : 4, "byteOffset" : 24, "componentType" : 5126, "count" : 1937, "type" : "VEC2", "max" : [0.39269909262657166, 2.4635417461395264], "min" : [-0.39269909262657166, 0.17710614204406738], "name" : "TEXCOORD_0"}], "asset" : {"generator" : "Aspose.3D 24.9.1", "version" : "2.0"}, "buffers" : [{"uri" : "data:application/octet-stream;base64,", "byteLength" : 226724}], "bufferViews" : [{"buffer" : 0, "byteOffset" : 0, "byteLength" : 54288, "target" : 34963}, {"buffer" : 0, "byteOffset" : 54292, "byteLength" : 44512, "byteStride" : 32, "target" : 34962}, {"buffer" : 0, "byteOffset" : 98808, "byteLength" : 38272, "byteStride" : 32, "target" : 34962}, {"buffer" : 0, "byteOffset" : 137084, "byteLength" : 27648, "byteStride" : 32, "target" : 34962}, {"buffer" : 0, "byteOffset" : 164736, "byteLength" : 61984, "byteStride" : 32, "target" : 34962}], "materials" : [{"name" : "F_8d1ac862f1b54951965197157d139468", "pbrMetallicRoughness" : {"baseColorFactor" : [0.21586070954799652, 0.21586070954799652, 0.21586070954799652, 1], "metallicFactor" : 0, "roughnessFactor" : 0.20000000298023224}, "emissiveFactor" : [0, 0, 0], "alphaMode" : "OPAQUE", "doubleSided" : false}, {"name" : "F_eb1a06928a474627b9c3013a8dd93f4a", "pbrMetallicRoughness" : {"baseColorFactor" : [0.9999998807907104, 0, 0, 1], "metallicFactor" : 0, "roughnessFactor" : 0.20000000298023224}, "emissiveFactor" : [0, 0, 0], "alphaMode" : "OPAQUE", "doubleSided" : false}, {"name" : "F_fbfc9492692549af9f7e07d15ebf0ebd", "pbrMetallicRoughness" : {"baseColorFactor" : [0.9999998807907104, 0.9999998807907104, 0.6038272976875305, 1], "metallicFactor" : 0, "roughnessFactor" : 0.20000000298023224}, "emissiveFactor" : [0, 0, 0], "alphaMode" : "OPAQUE", "doubleSided" : false}, {"name" : "F_d3c2f584a8c44f4abc29dc0ce3220b6b", "pbrMetallicRoughness" : {"baseColorFactor" : [0.9999998807907104, 0.9999998807907104, 0.9999998807907104, 1], "metallicFactor" : 0, "roughnessFactor" : 0.20000000298023224}, "emissiveFactor" : [0, 0, 0], "alphaMode" : "OPAQUE", "doubleSided" : false}], "meshes" : [{"primitives" : [{"attributes" : {"POSITION" : 1, "NORMAL" : 2, "TEXCOORD_0" : 3}, "indices" : 0, "material" : 0, "mode" : 4}, {"attributes" : {"POSITION" : 5, "NORMAL" : 6, "TEXCOORD_0" : 7}, "indices" : 4, "material" : 1, "mode" : 4}, {"attributes" : {"POSITION" : 9, "NORMAL" : 10, "TEXCOORD_0" : 11}, "indices" : 8, "material" : 2, "mode" : 4}, {"attributes" : {"POSITION" : 13, "NORMAL" : 14, "TEXCOORD_0" : 15}, "indices" : 12, "material" : 3, "mode" : 4}], "name" : "?????????1"}], "nodes" : [{"matrix" : [10, 0, 0, 0, 0, 10, 0, 0, 0, 0, 10, 0, 0, 0, 0, 1], "mesh" : 0, "name" : "?????????1"}, {"children" : [0], "name" : "glucose"}], "scene" : 0, "scenes" : [{"nodes" : [1]}]}